<?xml version="1.0" standalone="no"?><!DOCTYPE svg PUBLIC "-//W3C//DTD SVG 1.1//EN" "http://www.w3.org/Graphics/SVG/1.1/DTD/svg11.dtd"><svg t="1717394103761" class="icon" viewBox="0 0 1024 1024" version="1.1" xmlns="http://www.w3.org/2000/svg" p-id="4042" xmlns:xlink="http://www.w3.org/1999/xlink" width="200" height="200"><path d="M92.072682 567.581767h93.247504V451.830078H92.072682a48.231194 48.231194 0 0 0-48.231194 48.223255v19.297241a48.231194 48.231194 0 0 0 48.231194 48.231193zM92.072682 271.764837h93.247504V156.013147H92.072682a48.231194 48.231194 0 0 0-48.231194 48.231194v19.289302a48.231194 48.231194 0 0 0 48.231194 48.231194zM92.072682 863.39076h93.247504V747.63907H92.072682a48.231194 48.231194 0 0 0-48.231194 48.231194v19.289302a48.231194 48.231194 0 0 0 48.231194 48.231194z" fill="#ECF0F1" p-id="4043"></path><path d="M184.026295 29.688062H302.357829v964.623876H184.026295z" fill="#F8A805" p-id="4044"></path><path d="M981.452403 118.077519v783.272683c0 50.048992-40.594853 92.953798-90.683535 92.953798H302.357829V29.688062h588.411039c50.088682 0 90.675597 38.300775 90.675597 88.389457z" fill="#4898DA" p-id="4045"></path><path d="M890.768868 3.968992H184.034233c-14.208992 0-25.727008 10.232062-25.727008 24.441055v104.17017H90.786729C50.009302 132.588155 16.828527 163.466915 16.828527 204.244341v19.29724c0 40.777426 33.180775 76.252279 73.958202 76.252279h67.520496v128.611225H90.786729C50.009302 428.397147 16.828527 459.275907 16.828527 500.053333v19.289303c0 40.785364 33.180775 76.252279 73.958202 76.252279h67.520496v128.619163H90.786729c-40.777426 0-73.958202 30.87876-73.958202 71.656186v19.289302c0 40.785364 33.180775 76.252279 73.958202 76.252279h67.520496v101.606202c0 14.208992 11.510078 27.012961 25.71907 27.012961h706.750511c64.178605 0 116.394667-53.954481 116.394667-118.688744V118.077519C1007.171473 54.446636 954.955411 3.968992 890.776806 3.968992zM90.778791 248.339845c-12.40707 0-22.504186-12.391194-22.504186-24.806202v-19.289302c0-12.415008 10.097116-20.218047 22.512124-20.218046h67.520496v64.31355H90.786729z m0 295.81693c-12.40707 0-22.504186-12.391194-22.504186-24.806201v-19.289303c0-12.415008 10.097116-20.218047 22.512124-20.218046h67.520496v64.31355H90.786729z m0 295.81693c-12.40707 0-22.504186-12.399132-22.504186-24.806201v-19.289302c0-12.415008 10.097116-20.218047 22.512124-20.218047h67.520496v64.31355H90.786729zM209.76124 55.407132h66.87752v913.16986h-66.87752V55.41507z m745.972093 845.927194c0 36.371845-29.132403 67.242667-64.956527 67.242666H328.084837V55.41507h562.684031c36.427411 0 64.956527 26.806574 64.956527 62.662449v783.264745z" fill="#231F20" p-id="4046"></path><path d="M474.07231 666.393798a25.63969 25.63969 0 0 0 9.200124 1.706667c10.351132 0 20.106915-5.643907 24.028279-15.883907l35.72093-92.628341h163.585985l34.768372 89.310264c5.127938 13.248496 20.019597 19.527442 33.276031 14.399503 13.248496-5.12 19.837023-20.178357 14.717023-33.426852L648.803225 266.795659c-3.834047-9.914543-13.367566-15.883907-23.996527-15.883907h-0.960496c-10.660713 0-20.210109 5.929674-24.020342 15.875969L459.260031 633.490853c-5.08031 13.27231 1.547907 27.822636 14.812279 32.902945z m150.361302-319.384806l62.281427 161.133148H562.723721l61.709891-161.12521zM492.710698 199.465674h252.078635a25.71907 25.71907 0 1 0 0-51.446077H492.710698a25.71907 25.71907 0 1 0 0 51.438139zM533.861209 721.642171a25.71907 25.71907 0 1 0 0 51.446077h169.777613a25.71907 25.71907 0 1 0 0-51.438139H533.861209zM798.815256 824.534326H438.684775a25.71907 25.71907 0 1 0 0 51.446077h360.122543a25.71907 25.71907 0 0 0 0-51.438139z" fill="#231F20" p-id="4047"></path></svg>